<svg xmlns="http://www.w3.org/2000/svg" version="1.1" xmlns:xlink="http://www.w3.org/1999/xlink" xmlns:svgjs="http://svgjs.dev/svgjs" width="2000" height="2000"><g mask="url(&quot;#SvgjsMask1040&quot;)" fill="none"><rect width="2000" height="2000" x="0" y="0" fill="rgba(237, 246, 251, 1)"></rect><path d="M0,653.194C116.985,623.902,210.977,551.312,313.589,487.954C418.343,423.273,528.498,371.624,608.111,277.715C707.94,159.959,867.221,30.288,828.211,-119.079C787.84,-273.66,548.773,-264.534,436.745,-378.441C335.81,-481.068,353.384,-693.158,217.341,-740.194C82.765,-786.723,-37.954,-634.342,-173.024,-589.267C-301.464,-546.404,-446.868,-561.787,-556.283,-482.022C-679.844,-391.944,-786.818,-267.19,-819.673,-117.851C-853.424,35.561,-805.029,195.01,-736.306,336.26C-668.7,475.213,-575.804,614.015,-433.867,675.11C-298.109,733.545,-143.374,689.094,0,653.194" fill="#d9ecf7"></path><path d="M2000 2587.335C2117.479 2594.135 2246.382 2600.623 2341.26 2531.011 2434.923 2462.2889999999998 2432.514 2324.265 2493.396 2225.326 2566.195 2107.02 2739.089 2033.401 2732.855 1894.631 2726.743 1758.558 2560.9210000000003 1693.8029999999999 2465.168 1596.929 2376.584 1507.308 2315.245 1371.9389999999999 2191.697 1347.1390000000001 2068.757 1322.461 1967.474 1445.113 1845.101 1472.463 1709.968 1502.665 1531.839 1411.124 1440.35 1515.061 1349.076 1618.753 1446.527 1782.878 1450.3110000000001 1920.967 1453.346 2031.709 1418.609 2143.828 1460.391 2246.431 1503.027 2351.132 1587.645 2432.54 1683.219 2492.92 1778.296 2552.986 1887.727 2580.8360000000002 2000 2587.335" fill="#ffffff"></path></g><defs><mask id="SvgjsMask1040"><rect width="2000" height="2000" fill="#ffffff"></rect></mask></defs></svg>