<?xml version="1.0" encoding="UTF-8"?>
<svg width="250" height="50" id="a" xmlns="http://www.w3.org/2000/svg" viewBox="0 0 39 7.28"><path d="m9.8,4.51c.01.21.06.37.14.5.16.24.43.36.83.36.18,0,.34-.03.49-.08.28-.1.42-.29.42-.55,0-.2-.06-.34-.18-.42-.12-.08-.31-.15-.57-.22l-.48-.11c-.31-.07-.53-.15-.66-.24-.22-.15-.34-.38-.34-.68,0-.33.11-.59.33-.8.22-.21.53-.31.93-.31.37,0,.69.09.94.28.26.18.39.48.39.88h-.46c-.02-.19-.07-.34-.15-.45-.14-.19-.39-.28-.73-.28-.28,0-.48.06-.6.18-.12.12-.18.26-.18.43,0,.18.07.31.22.39.09.05.31.12.64.2l.49.12c.24.06.42.13.55.23.22.17.34.42.34.74,0,.4-.14.69-.43.86-.29.17-.62.26-.99.26-.44,0-.79-.12-1.03-.35-.25-.23-.37-.54-.37-.93h.46Z" fill="#4fa2d9"/><path d="m14.54,3.18c.19.15.3.39.34.75h-.43c-.03-.16-.09-.3-.18-.41s-.24-.16-.45-.16c-.28,0-.49.14-.61.41-.08.18-.12.4-.12.66s.06.49.17.67.29.27.53.27c.18,0,.33-.06.44-.17.11-.11.18-.27.22-.46h.43c-.05.35-.17.61-.37.77s-.45.24-.76.24c-.35,0-.62-.13-.83-.38s-.31-.57-.31-.95c0-.46.11-.83.34-1.09s.51-.39.86-.39c.3,0,.54.07.73.22Z" fill="#4fa2d9"/><path d="m15.33,2.04h.44v1.35c.11-.13.2-.23.28-.28.14-.09.32-.14.54-.14.38,0,.64.13.78.4.07.15.11.35.11.61v1.7h-.46v-1.67c0-.19-.02-.34-.07-.43-.08-.15-.23-.22-.45-.22-.18,0-.35.06-.5.19s-.22.37-.22.72v1.4h-.44v-3.64Z" fill="#4fa2d9"/><path d="m19.78,3.11c.18.09.31.2.4.34.09.13.15.29.18.47.03.12.04.32.04.58h-1.93c0,.27.07.49.19.65.12.16.3.24.55.24.23,0,.41-.08.55-.23.08-.09.13-.19.16-.31h.44c-.01.1-.05.21-.11.33s-.14.22-.22.29c-.13.13-.3.22-.5.27-.11.03-.23.04-.36.04-.33,0-.61-.12-.83-.36s-.34-.58-.34-1.01.11-.77.34-1.04.53-.4.9-.4c.19,0,.37.04.54.13Zm.16,1.04c-.02-.19-.06-.35-.13-.46-.12-.21-.32-.32-.61-.32-.2,0-.37.07-.51.22s-.21.33-.22.56h1.46Z" fill="#4fa2d9"/><path d="m22.41,3.12c.08.05.17.14.27.26v-1.34h.43v3.64h-.4v-.37c-.1.16-.23.28-.37.35-.14.07-.3.11-.49.11-.29,0-.55-.12-.76-.37s-.32-.58-.32-.99c0-.39.1-.72.29-1,.2-.28.48-.42.84-.42.2,0,.37.04.51.13Zm-.99,1.99c.12.19.31.29.58.29.2,0,.37-.09.51-.27.13-.18.2-.43.2-.76s-.07-.58-.2-.74-.3-.24-.5-.24c-.22,0-.4.09-.54.26-.14.17-.21.42-.21.76,0,.28.06.52.18.71Z" fill="#4fa2d9"/><path d="m24.22,3.04v1.76c0,.14.02.25.06.33.08.16.22.24.43.24.3,0,.51-.14.62-.42.06-.15.09-.35.09-.61v-1.3h.44v2.65h-.42v-.39c-.05.1-.12.19-.21.25-.17.14-.37.21-.61.21-.37,0-.62-.13-.76-.38-.07-.14-.11-.32-.11-.54v-1.8h.45Z" fill="#4fa2d9"/><path d="m26.6,2.06h.44v3.63h-.44v-3.63Z" fill="#4fa2d9"/><path d="m29.35,3.11c.18.09.31.2.4.34.09.13.15.29.18.47.03.12.04.32.04.58h-1.93c0,.27.07.49.19.65.12.16.3.24.55.24.23,0,.41-.08.55-.23.08-.09.13-.19.16-.31h.44c-.01.1-.05.21-.11.33s-.14.22-.22.29c-.13.13-.3.22-.5.27-.11.03-.23.04-.36.04-.33,0-.61-.12-.83-.36s-.34-.58-.34-1.01.11-.77.34-1.04.53-.4.9-.4c.19,0,.37.04.54.13Zm.16,1.04c-.02-.19-.06-.35-.13-.46-.12-.21-.32-.32-.61-.32-.2,0-.37.07-.51.22s-.21.33-.22.56h1.46Z" fill="#4fa2d9"/><path d="m30.58,2.06h.7l1.04,3.07,1.04-3.07h.7v3.63h-.47v-2.14c0-.07,0-.2,0-.37s0-.36,0-.55l-1.04,3.06h-.49l-1.05-3.06v.11c0,.09,0,.22,0,.41s0,.32,0,.4v2.14h-.47v-3.63Z" fill="#4fa2d9"/><path d="m36.38,3.11c.18.09.31.2.4.34.09.13.15.29.18.47.03.12.04.32.04.58h-1.93c0,.27.07.49.19.65.12.16.3.24.55.24.23,0,.41-.08.55-.23.08-.09.13-.19.16-.31h.44c-.01.1-.05.21-.11.33s-.14.22-.22.29c-.13.13-.3.22-.5.27-.11.03-.23.04-.36.04-.33,0-.61-.12-.83-.36s-.34-.58-.34-1.01.11-.77.34-1.04.53-.4.9-.4c.19,0,.37.04.54.13Zm.16,1.04c-.02-.19-.06-.35-.13-.46-.12-.21-.32-.32-.61-.32-.2,0-.37.07-.51.22s-.21.33-.22.56h1.46Z" fill="#4fa2d9"/><path d="m6.63,1.19v-.54c0-.15.12-.27.27-.27s.27.12.27.27v.54c0,.15-.12.27-.27.27s-.27-.12-.27-.27Zm-3.27.27c.15,0,.27-.12.27-.27v-.54c0-.15-.12-.27-.27-.27s-.27.12-.27.27v.54c0,.15.12.27.27.27Zm3.54,3.54v-.82h-.27v1.09h.82v-.27h-.54Zm-1.36.14c0,.68.55,1.22,1.22,1.22s1.22-.55,1.22-1.22-.55-1.22-1.22-1.22-1.22.55-1.22,1.22Zm2.99,0c0,.98-.79,1.77-1.77,1.77s-1.77-.79-1.77-1.77.79-1.77,1.77-1.77,1.77.79,1.77,1.77Zm-3.87.95h-2.11v-3.54h5.17v.48c.2.09.38.21.54.35V.92h-.82v.27c0,.36-.35.64-.72.52-.23-.07-.37-.3-.37-.54v-.25h-2.45v.27c0,.36-.35.64-.72.52-.23-.07-.37-.3-.37-.54v-.25h-.82v5.71h3c-.14-.16-.26-.35-.35-.54Z" fill="#4fa2d9"/></svg>